<?xml version="1.0" encoding="UTF-8" standalone="no"?>
<!DOCTYPE svg PUBLIC "-//W3C//DTD SVG 1.1//EN"
 "http://www.w3.org/Graphics/SVG/1.1/DTD/svg11.dtd">
<!-- Generated by graphviz version 2.43.20190912.0211 (20190912.0211)
 -->
<!-- Title: fifo1 Pages: 1 -->
<svg width="4730pt" height="808pt"
 viewBox="0.00 0.00 4729.58 808.04" xmlns="http://www.w3.org/2000/svg" xmlns:xlink="http://www.w3.org/1999/xlink">
<g id="graph0" class="graph" transform="scale(1 1) rotate(0) translate(4 804.04)">
<title>fifo1</title>
<polygon fill="white" stroke="transparent" points="-4,4 -4,-804.04 4725.58,-804.04 4725.58,4 -4,4"/>
<text text-anchor="middle" x="2360.79" y="-7.8" font-family="Times,serif" font-size="14.00">fifo1</text>
<!-- n3 -->
<g id="node1" class="node">
<title>n3</title>
<polygon fill="none" stroke="black" points="2060.46,-774.58 2060.46,-789.49 2025.55,-800.04 1976.18,-800.04 1941.27,-789.49 1941.27,-774.58 1976.18,-764.04 2025.55,-764.04 2060.46,-774.58"/>
<text text-anchor="middle" x="2000.86" y="-778.34" font-family="Times,serif" font-size="14.00">power_en</text>
</g>
<!-- c25 -->
<g id="node20" class="node">
<title>c25</title>
<polygon fill="none" stroke="black" points="2415.51,-693.54 2415.51,-762.54 2545.51,-762.54 2545.51,-693.54 2415.51,-693.54"/>
<text text-anchor="middle" x="2434.51" y="-747.34" font-family="Times,serif" font-size="14.00">A1</text>
<polyline fill="none" stroke="black" points="2415.51,-739.54 2453.51,-739.54 "/>
<text text-anchor="middle" x="2434.51" y="-724.34" font-family="Times,serif" font-size="14.00">A2</text>
<polyline fill="none" stroke="black" points="2415.51,-716.54 2453.51,-716.54 "/>
<text text-anchor="middle" x="2434.51" y="-701.34" font-family="Times,serif" font-size="14.00">ZN</text>
<polyline fill="none" stroke="black" points="2453.51,-693.54 2453.51,-762.54 "/>
<text text-anchor="middle" x="2489.01" y="-731.84" font-family="Times,serif" font-size="14.00">$2169</text>
<text text-anchor="middle" x="2489.01" y="-716.84" font-family="Times,serif" font-size="14.00">NAND2</text>
<polyline fill="none" stroke="black" points="2524.51,-693.54 2524.51,-762.54 "/>
<text text-anchor="middle" x="2535.01" y="-724.34" font-family="Times,serif" font-size="14.00"> </text>
</g>
<!-- n3&#45;&gt;c25 -->
<g id="edge29" class="edge">
<title>n3:e&#45;&gt;c25:w</title>
<path fill="none" stroke="#66a61e" d="M2061.86,-782.04C2215.66,-782.04 2255.41,-752.41 2404.08,-751.08"/>
<polygon fill="#66a61e" stroke="#66a61e" points="2404.52,-754.58 2414.51,-751.04 2404.49,-747.58 2404.52,-754.58"/>
</g>
<!-- c28 -->
<g id="node22" class="node">
<title>c28</title>
<polygon fill="none" stroke="black" points="2415.51,-601.54 2415.51,-670.54 2545.51,-670.54 2545.51,-601.54 2415.51,-601.54"/>
<text text-anchor="middle" x="2434.51" y="-655.34" font-family="Times,serif" font-size="14.00">A1</text>
<polyline fill="none" stroke="black" points="2415.51,-647.54 2453.51,-647.54 "/>
<text text-anchor="middle" x="2434.51" y="-632.34" font-family="Times,serif" font-size="14.00">A2</text>
<polyline fill="none" stroke="black" points="2415.51,-624.54 2453.51,-624.54 "/>
<text text-anchor="middle" x="2434.51" y="-609.34" font-family="Times,serif" font-size="14.00">ZN</text>
<polyline fill="none" stroke="black" points="2453.51,-601.54 2453.51,-670.54 "/>
<text text-anchor="middle" x="2489.01" y="-639.84" font-family="Times,serif" font-size="14.00">$2171</text>
<text text-anchor="middle" x="2489.01" y="-624.84" font-family="Times,serif" font-size="14.00">NAND2</text>
<polyline fill="none" stroke="black" points="2524.51,-601.54 2524.51,-670.54 "/>
<text text-anchor="middle" x="2535.01" y="-632.34" font-family="Times,serif" font-size="14.00"> </text>
</g>
<!-- n3&#45;&gt;c28 -->
<g id="edge30" class="edge">
<title>n3:e&#45;&gt;c28:w</title>
<path fill="none" stroke="#66a61e" d="M2061.86,-782.04C2077.52,-782.04 2075.88,-768.11 2084.51,-755.04 2104,-725.51 2091.17,-703.82 2120.51,-684.04 2226.38,-612.66 2280.48,-656.57 2404.29,-658.94"/>
<polygon fill="#66a61e" stroke="#66a61e" points="2404.47,-662.44 2414.51,-659.04 2404.54,-655.44 2404.47,-662.44"/>
</g>
<!-- n4 -->
<g id="node2" class="node">
<title>n4</title>
<polygon fill="none" stroke="black" points="3893.72,-383.04 3842.28,-365.04 3893.72,-347.04 3945.17,-365.04 3893.72,-383.04"/>
<text text-anchor="middle" x="3893.72" y="-361.34" font-family="Times,serif" font-size="14.00">raddr</text>
</g>
<!-- c31 -->
<g id="node24" class="node">
<title>c31</title>
<polygon fill="none" stroke="black" points="3981.19,-188.04 3981.19,-326.04 4608.19,-326.04 4608.19,-188.04 3981.19,-188.04"/>
<text text-anchor="middle" x="4014.19" y="-310.84" font-family="Times,serif" font-size="14.00">raddr</text>
<polyline fill="none" stroke="black" points="3981.19,-303.04 4047.19,-303.04 "/>
<text text-anchor="middle" x="4014.19" y="-287.84" font-family="Times,serif" font-size="14.00">waddr</text>
<polyline fill="none" stroke="black" points="3981.19,-280.04 4047.19,-280.04 "/>
<text text-anchor="middle" x="4014.19" y="-264.84" font-family="Times,serif" font-size="14.00">wclk</text>
<polyline fill="none" stroke="black" points="3981.19,-257.04 4047.19,-257.04 "/>
<text text-anchor="middle" x="4014.19" y="-241.84" font-family="Times,serif" font-size="14.00">wclken</text>
<polyline fill="none" stroke="black" points="3981.19,-234.04 4047.19,-234.04 "/>
<text text-anchor="middle" x="4014.19" y="-218.84" font-family="Times,serif" font-size="14.00">wdata</text>
<polyline fill="none" stroke="black" points="3981.19,-211.04 4047.19,-211.04 "/>
<text text-anchor="middle" x="4014.19" y="-195.84" font-family="Times,serif" font-size="14.00">wfull</text>
<polyline fill="none" stroke="black" points="4047.19,-188.04 4047.19,-326.04 "/>
<text text-anchor="middle" x="4300.19" y="-260.84" font-family="Times,serif" font-size="14.00">fifomem_inst</text>
<text text-anchor="middle" x="4300.19" y="-245.84" font-family="Times,serif" font-size="14.00">$paramod$96ebe22336453745eaf2d8e8fcb2272e629bfa13╲fifomem</text>
<polyline fill="none" stroke="black" points="4553.19,-188.04 4553.19,-326.04 "/>
<text text-anchor="middle" x="4580.69" y="-253.34" font-family="Times,serif" font-size="14.00">rdata</text>
</g>
<!-- n4&#45;&gt;c31 -->
<g id="edge32" class="edge">
<title>n4:e&#45;&gt;c31:w</title>
<path fill="none" stroke="#7570b3" stroke-width="3" d="M3945.19,-365.04C3968.3,-365.04 3958.55,-329.44 3971.39,-318.32"/>
<polygon fill="#7570b3" stroke="#7570b3" stroke-width="3" points="3972.82,-321.53 3981.19,-315.04 3970.6,-314.89 3972.82,-321.53"/>
</g>
<!-- n5 -->
<g id="node3" class="node">
<title>n5</title>
<polygon fill="none" stroke="black" points="2031.77,-628.58 2031.77,-643.49 2013.67,-654.04 1988.06,-654.04 1969.96,-643.49 1969.96,-628.58 1988.06,-618.04 2013.67,-618.04 2031.77,-628.58"/>
<text text-anchor="middle" x="2000.86" y="-632.34" font-family="Times,serif" font-size="14.00">rclk</text>
</g>
<!-- n5&#45;&gt;c28 -->
<g id="edge33" class="edge">
<title>n5:e&#45;&gt;c28:w</title>
<path fill="none" stroke="#d95f02" d="M2032.86,-636.04C2199,-636.04 2243.09,-636.04 2404.23,-636.04"/>
<polygon fill="#d95f02" stroke="#d95f02" points="2404.51,-639.54 2414.51,-636.04 2404.51,-632.54 2404.51,-639.54"/>
</g>
<!-- n6 -->
<g id="node4" class="node">
<title>n6</title>
<polygon fill="none" stroke="black" points="2000.86,-374.04 1917.08,-356.04 2000.86,-338.04 2084.65,-356.04 2000.86,-374.04"/>
<text text-anchor="middle" x="2000.86" y="-352.34" font-family="Times,serif" font-size="14.00">rclk_gated</text>
</g>
<!-- c29 -->
<g id="node23" class="node">
<title>c29</title>
<polygon fill="none" stroke="black" points="2420.01,-385.04 2420.01,-431.04 2541.01,-431.04 2541.01,-385.04 2420.01,-385.04"/>
<text text-anchor="middle" x="2439.01" y="-415.84" font-family="Times,serif" font-size="14.00">I</text>
<polyline fill="none" stroke="black" points="2420.01,-408.04 2458.01,-408.04 "/>
<text text-anchor="middle" x="2439.01" y="-392.84" font-family="Times,serif" font-size="14.00">ZN</text>
<polyline fill="none" stroke="black" points="2458.01,-385.04 2458.01,-431.04 "/>
<text text-anchor="middle" x="2489.01" y="-411.84" font-family="Times,serif" font-size="14.00">$2172</text>
<text text-anchor="middle" x="2489.01" y="-396.84" font-family="Times,serif" font-size="14.00">INV</text>
<polyline fill="none" stroke="black" points="2520.01,-385.04 2520.01,-431.04 "/>
<text text-anchor="middle" x="2530.51" y="-404.34" font-family="Times,serif" font-size="14.00"> </text>
</g>
<!-- n6&#45;&gt;c29 -->
<g id="edge34" class="edge">
<title>n6:e&#45;&gt;c29:w</title>
<path fill="none" stroke="#d95f02" d="M2084.51,-356.04C2101.67,-356.04 2103.79,-366.14 2120.51,-370.04 2246.57,-399.42 2283.62,-396.23 2408.19,-396.05"/>
<polygon fill="#d95f02" stroke="#d95f02" points="2408.51,-399.55 2418.51,-396.04 2408.5,-392.55 2408.51,-399.55"/>
</g>
<!-- c32 -->
<g id="node25" class="node">
<title>c32</title>
<polygon fill="none" stroke="black" points="3063.25,-264.04 3063.25,-356.04 3806.25,-356.04 3806.25,-264.04 3063.25,-264.04"/>
<text text-anchor="middle" x="3104.25" y="-340.84" font-family="Times,serif" font-size="14.00">rclk</text>
<polyline fill="none" stroke="black" points="3063.25,-333.04 3145.25,-333.04 "/>
<text text-anchor="middle" x="3104.25" y="-317.84" font-family="Times,serif" font-size="14.00">rinc</text>
<polyline fill="none" stroke="black" points="3063.25,-310.04 3145.25,-310.04 "/>
<text text-anchor="middle" x="3104.25" y="-294.84" font-family="Times,serif" font-size="14.00">rq2_wptr</text>
<polyline fill="none" stroke="black" points="3063.25,-287.04 3145.25,-287.04 "/>
<text text-anchor="middle" x="3104.25" y="-271.84" font-family="Times,serif" font-size="14.00">rrst_n</text>
<polyline fill="none" stroke="black" points="3145.25,-264.04 3145.25,-356.04 "/>
<text text-anchor="middle" x="3441.75" y="-313.84" font-family="Times,serif" font-size="14.00">rptr_empty_inst</text>
<text text-anchor="middle" x="3441.75" y="-298.84" font-family="Times,serif" font-size="14.00">$paramod╲rptr_empty╲ADDRSIZE=s32&#39;00000000000000000000000000000100</text>
<polyline fill="none" stroke="black" points="3738.25,-264.04 3738.25,-356.04 "/>
<text text-anchor="middle" x="3772.25" y="-337.34" font-family="Times,serif" font-size="14.00">raddr</text>
<polyline fill="none" stroke="black" points="3738.25,-326.04 3806.25,-326.04 "/>
<text text-anchor="middle" x="3772.25" y="-306.84" font-family="Times,serif" font-size="14.00">rempty</text>
<polyline fill="none" stroke="black" points="3738.25,-295.04 3806.25,-295.04 "/>
<text text-anchor="middle" x="3772.25" y="-275.84" font-family="Times,serif" font-size="14.00">rptr</text>
</g>
<!-- n6&#45;&gt;c32 -->
<g id="edge35" class="edge">
<title>n6:e&#45;&gt;c32:w</title>
<path fill="none" stroke="#d95f02" d="M2084.51,-356.04C2436.51,-356.04 2524.51,-356.82 2876.51,-357.04 2943.5,-357.08 2961.12,-367.77 3027.25,-357.04 3039.86,-354.99 3044.35,-349.15 3053.12,-346.45"/>
<polygon fill="#d95f02" stroke="#d95f02" points="3053.83,-349.88 3063.25,-345.04 3052.86,-342.95 3053.83,-349.88"/>
</g>
<!-- c34 -->
<g id="node27" class="node">
<title>c34</title>
<polygon fill="none" stroke="black" points="2120.51,-258.54 2120.51,-327.54 2840.51,-327.54 2840.51,-258.54 2120.51,-258.54"/>
<text text-anchor="middle" x="2150.01" y="-312.34" font-family="Times,serif" font-size="14.00">rclk</text>
<polyline fill="none" stroke="black" points="2120.51,-304.54 2179.51,-304.54 "/>
<text text-anchor="middle" x="2150.01" y="-289.34" font-family="Times,serif" font-size="14.00">rrst_n</text>
<polyline fill="none" stroke="black" points="2120.51,-281.54 2179.51,-281.54 "/>
<text text-anchor="middle" x="2150.01" y="-266.34" font-family="Times,serif" font-size="14.00">wptr</text>
<polyline fill="none" stroke="black" points="2179.51,-258.54 2179.51,-327.54 "/>
<text text-anchor="middle" x="2469.01" y="-296.84" font-family="Times,serif" font-size="14.00">sync_w2r_inst</text>
<text text-anchor="middle" x="2469.01" y="-281.84" font-family="Times,serif" font-size="14.00">$paramod╲sync_w2r╲ADDRSIZE=s32&#39;00000000000000000000000000000100</text>
<polyline fill="none" stroke="black" points="2758.51,-258.54 2758.51,-327.54 "/>
<text text-anchor="middle" x="2799.51" y="-289.34" font-family="Times,serif" font-size="14.00">rq2_wptr</text>
</g>
<!-- n6&#45;&gt;c34 -->
<g id="edge36" class="edge">
<title>n6:e&#45;&gt;c34:w</title>
<path fill="none" stroke="#d95f02" d="M2084.51,-356.04C2104.31,-356.04 2099.6,-328.61 2110.98,-319.18"/>
<polygon fill="#d95f02" stroke="#d95f02" points="2112.1,-322.49 2120.51,-316.04 2109.91,-315.84 2112.1,-322.49"/>
</g>
<!-- n7 -->
<g id="node5" class="node">
<title>n7</title>
<polygon fill="none" stroke="black" points="4721.77,-249.58 4721.77,-264.49 4698.99,-275.04 4666.78,-275.04 4644,-264.49 4644,-249.58 4666.78,-239.04 4698.99,-239.04 4721.77,-249.58"/>
<text text-anchor="middle" x="4682.89" y="-253.34" font-family="Times,serif" font-size="14.00">rdata</text>
</g>
<!-- n8 -->
<g id="node6" class="node">
<title>n8</title>
<polygon fill="none" stroke="black" points="3941.4,-303.58 3941.4,-318.49 3913.47,-329.04 3873.97,-329.04 3846.05,-318.49 3846.05,-303.58 3873.97,-293.04 3913.47,-293.04 3941.4,-303.58"/>
<text text-anchor="middle" x="3893.72" y="-307.34" font-family="Times,serif" font-size="14.00">rempty</text>
</g>
<!-- n9 -->
<g id="node7" class="node">
<title>n9</title>
<polygon fill="none" stroke="black" points="2982.78,-322.58 2982.78,-337.49 2964.68,-348.04 2939.08,-348.04 2920.97,-337.49 2920.97,-322.58 2939.08,-312.04 2964.68,-312.04 2982.78,-322.58"/>
<text text-anchor="middle" x="2951.88" y="-326.34" font-family="Times,serif" font-size="14.00">rinc</text>
</g>
<!-- n9&#45;&gt;c32 -->
<g id="edge39" class="edge">
<title>n9:e&#45;&gt;c32:w</title>
<path fill="none" stroke="#e6ab02" d="M2983.88,-330.04C3015.73,-330.04 3025.8,-323.58 3053.22,-322.27"/>
<polygon fill="#e6ab02" stroke="#e6ab02" points="3053.33,-325.77 3063.25,-322.04 3053.17,-318.77 3053.33,-325.77"/>
</g>
<!-- n10 -->
<g id="node8" class="node">
<title>n10</title>
<polygon fill="none" stroke="black" points="3893.72,-275.04 3852.5,-257.04 3893.72,-239.04 3934.95,-257.04 3893.72,-275.04"/>
<text text-anchor="middle" x="3893.72" y="-253.34" font-family="Times,serif" font-size="14.00">rptr</text>
</g>
<!-- c33 -->
<g id="node26" class="node">
<title>c33</title>
<polygon fill="none" stroke="black" points="212.48,-398.54 212.48,-467.54 938.48,-467.54 938.48,-398.54 212.48,-398.54"/>
<text text-anchor="middle" x="244.98" y="-452.34" font-family="Times,serif" font-size="14.00">rptr</text>
<polyline fill="none" stroke="black" points="212.48,-444.54 277.48,-444.54 "/>
<text text-anchor="middle" x="244.98" y="-429.34" font-family="Times,serif" font-size="14.00">wclk</text>
<polyline fill="none" stroke="black" points="212.48,-421.54 277.48,-421.54 "/>
<text text-anchor="middle" x="244.98" y="-406.34" font-family="Times,serif" font-size="14.00">wrst_n</text>
<polyline fill="none" stroke="black" points="277.48,-398.54 277.48,-467.54 "/>
<text text-anchor="middle" x="566.98" y="-436.84" font-family="Times,serif" font-size="14.00">sync_r2w_inst</text>
<text text-anchor="middle" x="566.98" y="-421.84" font-family="Times,serif" font-size="14.00">$paramod╲sync_r2w╲ADDRSIZE=s32&#39;00000000000000000000000000000100</text>
<polyline fill="none" stroke="black" points="856.48,-398.54 856.48,-467.54 "/>
<text text-anchor="middle" x="897.48" y="-429.34" font-family="Times,serif" font-size="14.00">wq2_rptr</text>
</g>
<!-- n10&#45;&gt;c33 -->
<g id="edge4" class="edge">
<title>n10:e&#45;&gt;c33:w</title>
<path fill="none" stroke="#e7298a" stroke-width="3" d="M3935.72,-257.04C3943.73,-257.04 3940.27,-269.26 3934.72,-275.04 3920.43,-289.94 3858.97,-271.92 3842.25,-284.04 3810.02,-307.39 3838.7,-343 3806.25,-366.04 3455.19,-615.23 3270.52,-420.32 2840.51,-441.04 1996.05,-481.72 1783.9,-464 938.48,-468.04 777.15,-468.81 331.2,-577.28 212.48,-468.04 211.86,-467.47 211.28,-466.79 210.77,-466.04"/>
<polygon fill="#e7298a" stroke="#e7298a" stroke-width="3" points="214.26,-466.26 211.48,-456.04 207.28,-465.76 214.26,-466.26"/>
</g>
<!-- n11 -->
<g id="node9" class="node">
<title>n11</title>
<polygon fill="none" stroke="black" points="2951.88,-294.04 2876.64,-276.04 2951.88,-258.04 3027.12,-276.04 2951.88,-294.04"/>
<text text-anchor="middle" x="2951.88" y="-272.34" font-family="Times,serif" font-size="14.00">rq2_wptr</text>
</g>
<!-- n11&#45;&gt;c32 -->
<g id="edge6" class="edge">
<title>n11:e&#45;&gt;c32:w</title>
<path fill="none" stroke="#e6ab02" stroke-width="3" d="M3027.25,-276.04C3041.9,-276.04 3044.19,-289.47 3053.43,-295.34"/>
<polygon fill="#e6ab02" stroke="#e6ab02" stroke-width="3" points="3052.68,-298.76 3063.25,-298.04 3054.53,-292.01 3052.68,-298.76"/>
</g>
<!-- n12 -->
<g id="node10" class="node">
<title>n12</title>
<polygon fill="none" stroke="black" points="2042.38,-284.58 2042.38,-299.49 2018.06,-310.04 1983.67,-310.04 1959.35,-299.49 1959.35,-284.58 1983.67,-274.04 2018.06,-274.04 2042.38,-284.58"/>
<text text-anchor="middle" x="2000.86" y="-288.34" font-family="Times,serif" font-size="14.00">rrst_n</text>
</g>
<!-- n12&#45;&gt;c32 -->
<g id="edge7" class="edge">
<title>n12:e&#45;&gt;c32:w</title>
<path fill="none" stroke="#66a61e" d="M2043.86,-292.04C2082.92,-292.04 2082.72,-258.91 2120.51,-249.04 2315.46,-198.09 2835.52,-187.04 3027.25,-249.04 3042.07,-253.83 3043.63,-267.25 3053.32,-272.69"/>
<polygon fill="#66a61e" stroke="#66a61e" points="3052.71,-276.15 3063.25,-275.04 3054.32,-269.33 3052.71,-276.15"/>
</g>
<!-- n12&#45;&gt;c34 -->
<g id="edge8" class="edge">
<title>n12:e&#45;&gt;c34:w</title>
<path fill="none" stroke="#66a61e" d="M2043.86,-292.04C2074.2,-292.04 2084.27,-292.83 2110.18,-293"/>
<polygon fill="#66a61e" stroke="#66a61e" points="2110.5,-296.51 2120.51,-293.04 2110.52,-289.51 2110.5,-296.51"/>
</g>
<!-- n13 -->
<g id="node11" class="node">
<title>n13</title>
<polygon fill="none" stroke="black" points="3434.75,-600.04 3377.77,-582.04 3434.75,-564.04 3491.72,-582.04 3434.75,-600.04"/>
<text text-anchor="middle" x="3434.75" y="-578.34" font-family="Times,serif" font-size="14.00">waddr</text>
</g>
<!-- n13&#45;&gt;c31 -->
<g id="edge10" class="edge">
<title>n13:e&#45;&gt;c31:w</title>
<path fill="none" stroke="#d95f02" stroke-width="3" d="M3492.75,-582.04C3694.34,-582.04 3797.88,-687.65 3945.19,-550.04 3984.69,-513.14 3931.36,-320.27 3971.21,-294.81"/>
<polygon fill="#d95f02" stroke="#d95f02" stroke-width="3" points="3972.5,-298.09 3981.19,-292.04 3970.62,-291.34 3972.5,-298.09"/>
</g>
<!-- n14 -->
<g id="node12" class="node">
<title>n14</title>
<polygon fill="none" stroke="black" points="2035.31,-720.58 2035.31,-735.49 2015.13,-746.04 1986.6,-746.04 1966.42,-735.49 1966.42,-720.58 1986.6,-710.04 2015.13,-710.04 2035.31,-720.58"/>
<text text-anchor="middle" x="2000.86" y="-724.34" font-family="Times,serif" font-size="14.00">wclk</text>
</g>
<!-- n14&#45;&gt;c25 -->
<g id="edge11" class="edge">
<title>n14:e&#45;&gt;c25:w</title>
<path fill="none" stroke="#666666" d="M2036.86,-728.04C2201.26,-728.04 2244.89,-728.04 2404.34,-728.04"/>
<polygon fill="#666666" stroke="#666666" points="2404.51,-731.54 2414.51,-728.04 2404.51,-724.54 2404.51,-731.54"/>
</g>
<!-- n15 -->
<g id="node13" class="node">
<title>n15</title>
<polygon fill="none" stroke="black" points="88.24,-535.04 -0.24,-517.04 88.24,-499.04 176.72,-517.04 88.24,-535.04"/>
<text text-anchor="middle" x="88.24" y="-513.34" font-family="Times,serif" font-size="14.00">wclk_gated</text>
</g>
<!-- c27 -->
<g id="node21" class="node">
<title>c27</title>
<polygon fill="none" stroke="black" points="514.98,-586.04 514.98,-632.04 635.98,-632.04 635.98,-586.04 514.98,-586.04"/>
<text text-anchor="middle" x="533.98" y="-616.84" font-family="Times,serif" font-size="14.00">I</text>
<polyline fill="none" stroke="black" points="514.98,-609.04 552.98,-609.04 "/>
<text text-anchor="middle" x="533.98" y="-593.84" font-family="Times,serif" font-size="14.00">ZN</text>
<polyline fill="none" stroke="black" points="552.98,-586.04 552.98,-632.04 "/>
<text text-anchor="middle" x="583.98" y="-612.84" font-family="Times,serif" font-size="14.00">$2170</text>
<text text-anchor="middle" x="583.98" y="-597.84" font-family="Times,serif" font-size="14.00">INV</text>
<polyline fill="none" stroke="black" points="614.98,-586.04 614.98,-632.04 "/>
<text text-anchor="middle" x="625.48" y="-605.34" font-family="Times,serif" font-size="14.00"> </text>
</g>
<!-- n15&#45;&gt;c27 -->
<g id="edge12" class="edge">
<title>n15:e&#45;&gt;c27:w</title>
<path fill="none" stroke="#7570b3" d="M176.48,-517.04C198.18,-517.04 192.92,-540.63 212.48,-550.04 331.39,-607.25 375.82,-597.59 503.34,-597.06"/>
<polygon fill="#7570b3" stroke="#7570b3" points="503.49,-600.56 513.48,-597.04 503.47,-593.56 503.49,-600.56"/>
</g>
<!-- n15&#45;&gt;c31 -->
<g id="edge13" class="edge">
<title>n15:e&#45;&gt;c31:w</title>
<path fill="none" stroke="#7570b3" d="M176.48,-517.04C564.29,-517.04 661.04,-536.04 1048.85,-536.04 1048.85,-536.04 1048.85,-536.04 3435.75,-536.04 3671.04,-536.04 3785.03,-564.4 3945.19,-392.04 3981.24,-353.24 3932.15,-280.27 3970.83,-270.2"/>
<polygon fill="#7570b3" stroke="#7570b3" points="3971.65,-273.63 3981.19,-269.04 3970.87,-266.68 3971.65,-273.63"/>
</g>
<!-- n15&#45;&gt;c33 -->
<g id="edge14" class="edge">
<title>n15:e&#45;&gt;c33:w</title>
<path fill="none" stroke="#7570b3" d="M176.48,-517.04C212.97,-517.04 180.16,-449.23 202.58,-435.46"/>
<polygon fill="#7570b3" stroke="#7570b3" points="203.6,-438.82 212.48,-433.04 201.93,-432.02 203.6,-438.82"/>
</g>
<!-- c35 -->
<g id="node28" class="node">
<title>c35</title>
<polygon fill="none" stroke="black" points="1161.22,-357.04 1161.22,-449.04 1881.22,-449.04 1881.22,-357.04 1161.22,-357.04"/>
<text text-anchor="middle" x="1202.22" y="-433.84" font-family="Times,serif" font-size="14.00">wclk</text>
<polyline fill="none" stroke="black" points="1161.22,-426.04 1243.22,-426.04 "/>
<text text-anchor="middle" x="1202.22" y="-410.84" font-family="Times,serif" font-size="14.00">winc</text>
<polyline fill="none" stroke="black" points="1161.22,-403.04 1243.22,-403.04 "/>
<text text-anchor="middle" x="1202.22" y="-387.84" font-family="Times,serif" font-size="14.00">wq2_rptr</text>
<polyline fill="none" stroke="black" points="1161.22,-380.04 1243.22,-380.04 "/>
<text text-anchor="middle" x="1202.22" y="-364.84" font-family="Times,serif" font-size="14.00">wrst_n</text>
<polyline fill="none" stroke="black" points="1243.22,-357.04 1243.22,-449.04 "/>
<text text-anchor="middle" x="1531.22" y="-406.84" font-family="Times,serif" font-size="14.00">wptr_full_inst</text>
<text text-anchor="middle" x="1531.22" y="-391.84" font-family="Times,serif" font-size="14.00">$paramod╲wptr_full╲ADDRSIZE=s32&#39;00000000000000000000000000000100</text>
<polyline fill="none" stroke="black" points="1819.22,-357.04 1819.22,-449.04 "/>
<text text-anchor="middle" x="1850.22" y="-430.34" font-family="Times,serif" font-size="14.00">waddr</text>
<polyline fill="none" stroke="black" points="1819.22,-419.04 1881.22,-419.04 "/>
<text text-anchor="middle" x="1850.22" y="-399.84" font-family="Times,serif" font-size="14.00">wfull</text>
<polyline fill="none" stroke="black" points="1819.22,-388.04 1881.22,-388.04 "/>
<text text-anchor="middle" x="1850.22" y="-368.84" font-family="Times,serif" font-size="14.00">wptr</text>
</g>
<!-- n15&#45;&gt;c35 -->
<g id="edge15" class="edge">
<title>n15:e&#45;&gt;c35:w</title>
<path fill="none" stroke="#7570b3" d="M176.48,-517.04C515.61,-517.04 601.5,-515.24 938.48,-477.04 985.29,-471.73 1095.93,-442.1 1150.99,-438.41"/>
<polygon fill="#7570b3" stroke="#7570b3" points="1151.36,-441.9 1161.22,-438.04 1151.1,-434.91 1151.36,-441.9"/>
</g>
<!-- n16 -->
<g id="node14" class="node">
<title>n16</title>
<polygon fill="none" stroke="black" points="3936.14,-141.58 3936.14,-156.49 3911.29,-167.04 3876.15,-167.04 3851.3,-156.49 3851.3,-141.58 3876.15,-131.04 3911.29,-131.04 3936.14,-141.58"/>
<text text-anchor="middle" x="3893.72" y="-145.34" font-family="Times,serif" font-size="14.00">wdata</text>
</g>
<!-- n16&#45;&gt;c31 -->
<g id="edge16" class="edge">
<title>n16:e&#45;&gt;c31:w</title>
<path fill="none" stroke="#1b9e77" stroke-width="3" d="M3937.72,-149.04C3971.5,-149.04 3949.42,-207.45 3971.41,-219.77"/>
<polygon fill="#1b9e77" stroke="#1b9e77" stroke-width="3" points="3970.66,-223.19 3981.19,-222.04 3972.24,-216.37 3970.66,-223.19"/>
</g>
<!-- n17 -->
<g id="node15" class="node">
<title>n17</title>
<polygon fill="none" stroke="black" points="2988.54,-124.58 2988.54,-139.49 2967.06,-150.04 2936.69,-150.04 2915.21,-139.49 2915.21,-124.58 2936.69,-114.04 2967.06,-114.04 2988.54,-124.58"/>
<text text-anchor="middle" x="2951.88" y="-128.34" font-family="Times,serif" font-size="14.00">wfull</text>
</g>
<!-- n17&#45;&gt;c31 -->
<g id="edge18" class="edge">
<title>n17:e&#45;&gt;c31:w</title>
<path fill="none" stroke="#666666" d="M2989.88,-132.04C3414.49,-132.04 3586.97,105.92 3945.19,-122.04 3973.58,-140.1 3949.99,-187.07 3971.18,-197.12"/>
<polygon fill="#666666" stroke="#666666" points="3970.71,-200.6 3981.19,-199.04 3972.03,-193.72 3970.71,-200.6"/>
</g>
<!-- n18 -->
<g id="node16" class="node">
<title>n18</title>
<polygon fill="none" stroke="black" points="1085.2,-230.58 1085.2,-245.49 1064.49,-256.04 1035.21,-256.04 1014.5,-245.49 1014.5,-230.58 1035.21,-220.04 1064.49,-220.04 1085.2,-230.58"/>
<text text-anchor="middle" x="1049.85" y="-234.34" font-family="Times,serif" font-size="14.00">winc</text>
</g>
<!-- n18&#45;&gt;c31 -->
<g id="edge19" class="edge">
<title>n18:e&#45;&gt;c31:w</title>
<path fill="none" stroke="#d95f02" d="M1086.85,-238.04C1457.03,-238.04 1547.32,-187.49 1917.22,-173.04 1991.51,-170.13 2010.17,-171.9 2084.51,-173.04 2498.14,-179.37 3540.84,-142.71 3945.19,-230.04 3958.17,-232.84 3962.22,-240.14 3971.18,-243.41"/>
<polygon fill="#d95f02" stroke="#d95f02" points="3970.76,-246.89 3981.19,-245.04 3971.88,-239.98 3970.76,-246.89"/>
</g>
<!-- n18&#45;&gt;c35 -->
<g id="edge20" class="edge">
<title>n18:e&#45;&gt;c35:w</title>
<path fill="none" stroke="#d95f02" d="M1086.85,-238.04C1126.01,-238.04 1119.99,-387.19 1151.74,-411.66"/>
<polygon fill="#d95f02" stroke="#d95f02" points="1150.63,-414.98 1161.22,-415.04 1152.98,-408.38 1150.63,-414.98"/>
</g>
<!-- n19 -->
<g id="node17" class="node">
<title>n19</title>
<polygon fill="none" stroke="black" points="2000.86,-218.04 1954.95,-200.04 2000.86,-182.04 2046.78,-200.04 2000.86,-218.04"/>
<text text-anchor="middle" x="2000.86" y="-196.34" font-family="Times,serif" font-size="14.00">wptr</text>
</g>
<!-- n19&#45;&gt;c34 -->
<g id="edge22" class="edge">
<title>n19:e&#45;&gt;c34:w</title>
<path fill="none" stroke="#e6ab02" stroke-width="3" d="M2047.86,-200.04C2088.85,-200.04 2078.14,-258.52 2110.24,-268.58"/>
<polygon fill="#e6ab02" stroke="#e6ab02" stroke-width="3" points="2110.11,-272.09 2120.51,-270.04 2111.1,-265.16 2110.11,-272.09"/>
</g>
<!-- n20 -->
<g id="node18" class="node">
<title>n20</title>
<polygon fill="none" stroke="black" points="1049.85,-432.04 974.61,-414.04 1049.85,-396.04 1125.09,-414.04 1049.85,-432.04"/>
<text text-anchor="middle" x="1049.85" y="-410.34" font-family="Times,serif" font-size="14.00">wq2_rptr</text>
</g>
<!-- n20&#45;&gt;c35 -->
<g id="edge26" class="edge">
<title>n20:e&#45;&gt;c35:w</title>
<path fill="none" stroke="#e6ab02" stroke-width="3" d="M1125.22,-414.04C1140.05,-414.04 1142.09,-400 1151.33,-393.86"/>
<polygon fill="#e6ab02" stroke="#e6ab02" stroke-width="3" points="1152.56,-397.15 1161.22,-391.04 1150.64,-390.41 1152.56,-397.15"/>
</g>
<!-- n21 -->
<g id="node19" class="node">
<title>n21</title>
<polygon fill="none" stroke="black" points="134.19,-381.58 134.19,-396.49 107.27,-407.04 69.2,-407.04 42.28,-396.49 42.28,-381.58 69.2,-371.04 107.27,-371.04 134.19,-381.58"/>
<text text-anchor="middle" x="88.24" y="-385.34" font-family="Times,serif" font-size="14.00">wrst_n</text>
</g>
<!-- n21&#45;&gt;c33 -->
<g id="edge27" class="edge">
<title>n21:e&#45;&gt;c33:w</title>
<path fill="none" stroke="#666666" d="M135.24,-389.04C167.2,-389.04 175.36,-405.99 202.49,-409.43"/>
<polygon fill="#666666" stroke="#666666" points="202.28,-412.93 212.48,-410.04 202.71,-405.94 202.28,-412.93"/>
</g>
<!-- n21&#45;&gt;c35 -->
<g id="edge28" class="edge">
<title>n21:e&#45;&gt;c35:w</title>
<path fill="none" stroke="#666666" d="M135.24,-389.04C587.87,-389.04 703.39,-368.35 1150.92,-368.04"/>
<polygon fill="#666666" stroke="#666666" points="1151.22,-371.54 1161.22,-368.04 1151.22,-364.54 1151.22,-371.54"/>
</g>
<!-- c31&#45;&gt;n7 -->
<g id="edge37" class="edge">
<title>c31:e&#45;&gt;n7:w</title>
<path fill="none" stroke="#7570b3" stroke-width="3" d="M4608.19,-257.04C4620.19,-257.04 4625.44,-257.04 4634.07,-257.04"/>
<polygon fill="#7570b3" stroke="#7570b3" stroke-width="3" points="4634.19,-260.54 4644.19,-257.04 4634.19,-253.54 4634.19,-260.54"/>
</g>
<!-- c32&#45;&gt;n4 -->
<g id="edge31" class="edge">
<title>c32:e&#45;&gt;n4:w</title>
<path fill="none" stroke="#7570b3" stroke-width="3" d="M3806.25,-341.04C3821.42,-341.04 3823.09,-355.98 3832.57,-362.28"/>
<polygon fill="#7570b3" stroke="#7570b3" stroke-width="3" points="3831.67,-365.67 3842.25,-365.04 3833.59,-358.94 3831.67,-365.67"/>
</g>
<!-- c32&#45;&gt;n8 -->
<g id="edge38" class="edge">
<title>c32:e&#45;&gt;n8:w</title>
<path fill="none" stroke="#e7298a" d="M3806.25,-311.04C3819.34,-311.04 3824.91,-311.04 3834.48,-311.04"/>
<polygon fill="#e7298a" stroke="#e7298a" points="3834.72,-314.54 3844.72,-311.04 3834.72,-307.54 3834.72,-314.54"/>
</g>
<!-- c32&#45;&gt;n10 -->
<g id="edge3" class="edge">
<title>c32:e&#45;&gt;n10:w</title>
<path fill="none" stroke="#e7298a" stroke-width="3" d="M3806.25,-279.04C3824.84,-279.04 3828.43,-263.95 3841.86,-258.76"/>
<polygon fill="#e7298a" stroke="#e7298a" stroke-width="3" points="3842.47,-262.21 3851.72,-257.04 3841.27,-255.31 3842.47,-262.21"/>
</g>
<!-- c33&#45;&gt;n20 -->
<g id="edge25" class="edge">
<title>c33:e&#45;&gt;n20:w</title>
<path fill="none" stroke="#e6ab02" stroke-width="3" d="M938.48,-433.04C952.47,-433.04 955.53,-421.67 964.57,-416.52"/>
<polygon fill="#e6ab02" stroke="#e6ab02" stroke-width="3" points="965.63,-419.86 974.48,-414.04 963.93,-413.07 965.63,-419.86"/>
</g>
<!-- c34&#45;&gt;n11 -->
<g id="edge5" class="edge">
<title>c34:e&#45;&gt;n11:w</title>
<path fill="none" stroke="#e6ab02" stroke-width="3" d="M2840.51,-293.04C2854.19,-293.04 2857.66,-282.87 2866.71,-278.26"/>
<polygon fill="#e6ab02" stroke="#e6ab02" stroke-width="3" points="2867.53,-281.66 2876.51,-276.04 2865.98,-274.84 2867.53,-281.66"/>
</g>
<!-- c35&#45;&gt;n13 -->
<g id="edge9" class="edge">
<title>c35:e&#45;&gt;n13:w</title>
<path fill="none" stroke="#d95f02" stroke-width="3" d="M1881.22,-434.04C2211.84,-434.04 3026.27,-579.09 3366.57,-581.99"/>
<polygon fill="#d95f02" stroke="#d95f02" stroke-width="3" points="3366.73,-585.49 3376.75,-582.04 3366.76,-578.49 3366.73,-585.49"/>
</g>
<!-- c35&#45;&gt;n17 -->
<g id="edge17" class="edge">
<title>c35:e&#45;&gt;n17:w</title>
<path fill="none" stroke="#666666" d="M1881.22,-404.04C1945.04,-404.04 1871.42,-309.48 1917.22,-265.04 1971.94,-211.94 2013.58,-255.01 2084.51,-227.04 2101.74,-220.24 2102.87,-211.7 2120.51,-206.04 2454.5,-98.85 2557.77,-131.4 2903.83,-132.03"/>
<polygon fill="#666666" stroke="#666666" points="2903.87,-135.53 2913.88,-132.04 2903.88,-128.53 2903.87,-135.53"/>
</g>
<!-- c35&#45;&gt;n19 -->
<g id="edge21" class="edge">
<title>c35:e&#45;&gt;n19:w</title>
<path fill="none" stroke="#e6ab02" stroke-width="3" d="M1881.22,-372.04C1945.47,-372.04 1883.51,-286.73 1917.22,-232.04 1926.53,-216.94 1930.67,-205.08 1943.8,-201.3"/>
<polygon fill="#e6ab02" stroke="#e6ab02" stroke-width="3" points="1944.38,-204.76 1953.86,-200.04 1943.5,-197.81 1944.38,-204.76"/>
</g>
<!-- n1 -->
<g id="node29" class="node">
<title>n1</title>
<polygon fill="none" stroke="black" points="88.24,-669.04 14.67,-651.04 88.24,-633.04 161.8,-651.04 88.24,-669.04"/>
<text text-anchor="middle" x="88.24" y="-647.34" font-family="Times,serif" font-size="14.00">$new_n6</text>
</g>
<!-- n1&#45;&gt;c25 -->
<g id="edge1" class="edge">
<title>n1:e&#45;&gt;c25:w</title>
<path fill="none" stroke="#666666" d="M163.24,-651.04C557.08,-651.04 655,-682.04 1048.85,-682.04 1048.85,-682.04 1048.85,-682.04 1522.22,-682.04 1915.53,-682.04 2016.09,-704.65 2404.4,-705.03"/>
<polygon fill="#666666" stroke="#666666" points="2404.5,-708.53 2414.51,-705.04 2404.51,-701.53 2404.5,-708.53"/>
</g>
<!-- n1&#45;&gt;c27 -->
<g id="edge2" class="edge">
<title>n1:e&#45;&gt;c27:w</title>
<path fill="none" stroke="#666666" d="M163.24,-651.04C315.96,-651.04 355.49,-622.37 503.13,-621.08"/>
<polygon fill="#666666" stroke="#666666" points="503.49,-624.58 513.48,-621.04 503.46,-617.58 503.49,-624.58"/>
</g>
<!-- n2 -->
<g id="node30" class="node">
<title>n2</title>
<polygon fill="none" stroke="black" points="2000.86,-600.04 1927.3,-582.04 2000.86,-564.04 2074.43,-582.04 2000.86,-600.04"/>
<text text-anchor="middle" x="2000.86" y="-578.34" font-family="Times,serif" font-size="14.00">$new_n8</text>
</g>
<!-- n2&#45;&gt;c28 -->
<g id="edge23" class="edge">
<title>n2:e&#45;&gt;c28:w</title>
<path fill="none" stroke="#1b9e77" d="M2075.86,-582.04C2223.61,-582.04 2261.68,-611.66 2404.49,-612.99"/>
<polygon fill="#1b9e77" stroke="#1b9e77" points="2404.49,-616.49 2414.51,-613.04 2404.52,-609.49 2404.49,-616.49"/>
</g>
<!-- n2&#45;&gt;c29 -->
<g id="edge24" class="edge">
<title>n2:e&#45;&gt;c29:w</title>
<path fill="none" stroke="#1b9e77" d="M2075.86,-582.04C2240.86,-582.04 2249.75,-426.61 2408.35,-420.24"/>
<polygon fill="#1b9e77" stroke="#1b9e77" points="2408.58,-423.74 2418.51,-420.04 2408.44,-416.74 2408.58,-423.74"/>
</g>
</g>
</svg>
